<svg width="55" height="55" viewBox="0 0 55 55" fill="none" xmlns="http://www.w3.org/2000/svg">
<path d="M27.4849 41.3155H26.7382C23.3326 41.1003 20.1224 39.6514 17.7095 37.2402C15.2965 34.8291 13.8465 31.6213 13.6312 28.2183C13.5254 26.3383 13.8056 24.4565 14.4548 22.6888C15.1039 20.9211 16.1081 19.3048 17.4057 17.9394C18.7237 16.6112 20.2946 15.5601 22.0257 14.8483C23.7568 14.1364 25.613 13.7782 27.4849 13.7947C29.7527 13.793 31.9864 14.3476 33.9896 15.4099C35.9929 16.4722 37.7045 18.0097 38.9743 19.8874C40.5029 22.123 41.3263 24.7647 41.3385 27.4722C41.3551 29.3427 40.9966 31.1975 40.2842 32.9273C39.5718 34.657 38.52 36.2268 37.1907 37.5438C34.5694 40.0145 31.0879 41.3674 27.4849 41.3155ZM27.4849 18.9341C26.3462 18.9713 25.2263 19.2345 24.1905 19.7084C23.1547 20.1823 22.2236 20.8575 21.4515 21.6946C20.6794 22.5317 20.0817 23.514 19.6934 24.5842C19.305 25.6544 19.1336 26.7911 19.1892 27.9281C19.2991 30.0251 20.1822 32.0071 21.6681 33.4918C23.154 34.9766 25.1375 35.859 27.236 35.9688C28.3739 35.9963 29.5059 35.7975 30.5662 35.3839C31.6265 34.9702 32.5939 34.3501 33.4122 33.5594C34.2304 32.7688 34.8832 31.8235 35.3325 30.7784C35.7818 29.7334 36.0187 28.6095 36.0293 27.4722C36.0134 25.7771 35.5094 24.1224 34.5776 22.7058C33.7903 21.5494 32.7331 20.6017 31.4974 19.9446C30.2617 19.2875 28.8846 18.9407 27.4849 18.9341Z" fill="white"/>
<path d="M45.8338 12.4665C45.8338 13.1223 45.6391 13.7634 45.2745 14.3086C44.9099 14.8539 44.3917 15.2789 43.7854 15.5299C43.179 15.7808 42.5118 15.8465 41.8682 15.7185C41.2245 15.5906 40.6332 15.2748 40.1692 14.8111C39.7051 14.3474 39.3891 13.7566 39.261 13.1134C39.133 12.4702 39.1987 11.8035 39.4499 11.1976C39.701 10.5918 40.1263 10.0739 40.672 9.70956C41.2177 9.34522 41.8592 9.15076 42.5155 9.15076C42.959 9.16275 43.3958 9.26131 43.8013 9.44089C44.3988 9.69179 44.9096 10.112 45.2708 10.6497C45.632 11.1874 45.8277 11.819 45.8338 12.4665Z" fill="white"/>
<path d="M38.4087 55H16.5912C12.191 55 7.97092 53.2533 4.85946 50.1442C1.748 47.0351 0 42.8182 0 38.4213V16.5788C0 12.1818 1.748 7.96492 4.85946 4.8558C7.97092 1.74669 12.191 0 16.5912 0H38.4087C42.809 0 47.029 1.74669 50.1405 4.8558C53.252 7.96492 55 12.1818 55 16.5788V38.3798C55.0054 40.5604 54.5803 42.7207 53.749 44.7369C52.9176 46.7532 51.6964 48.5857 50.1552 50.1296C48.614 51.6734 46.7832 52.8983 44.7675 53.7341C42.7519 54.5698 40.591 55 38.4087 55ZM16.5912 5.26375C13.5914 5.27467 10.7176 6.47029 8.59637 8.5899C6.47517 10.7095 5.27865 13.5812 5.26772 16.5788V38.3798C5.27865 41.3774 6.47517 44.249 8.59637 46.3687C10.7176 48.4883 13.5914 49.6839 16.5912 49.6948H38.4087C41.4085 49.6839 44.2824 48.4883 46.4036 46.3687C48.5248 44.249 49.7213 41.3774 49.7322 38.3798V16.5788C49.7213 13.5812 48.5248 10.7095 46.4036 8.5899C44.2824 6.47029 41.4085 5.27467 38.4087 5.26375H16.5912Z" fill="white"/>
</svg>
