<svg width="25" height="38" viewBox="0 0 25 38" fill="none" xmlns="http://www.w3.org/2000/svg">
<path d="M8.84156 24.9717C7.83356 17.4357 18.0576 15.7557 18.0576 11.0997C18.0576 8.17169 15.7536 6.53969 11.9616 6.53969C9.03356 6.53969 6.63356 7.88369 4.28156 10.3317L0.34556 6.73169C3.41756 3.17969 7.64156 0.827691 12.7776 0.827691C19.7376 0.827691 24.8256 4.09169 24.8256 10.4757C24.8256 17.4837 14.3136 18.3477 15.0816 24.9717H8.84156ZM12.0096 37.7877C9.51356 37.7877 7.73756 36.0117 7.73756 33.5157C7.73756 31.0197 9.56156 29.2917 12.0096 29.2917C14.4096 29.2917 16.2336 31.0197 16.2336 33.5157C16.2336 36.0117 14.4096 37.7877 12.0096 37.7877Z" fill="black"/>
</svg>
