<svg width="55" height="55" viewBox="0 0 55 55" fill="none" xmlns="http://www.w3.org/2000/svg">
<path fill-rule="evenodd" clip-rule="evenodd" d="M50.3759 0.306473L1.208 25.0422C0.851422 25.212 0.545743 25.5052 0.330417 25.8839C0.11509 26.2627 0 26.7096 0 27.1671C0 27.6245 0.11509 28.0714 0.330417 28.4502C0.545743 28.829 0.851422 29.1221 1.208 29.2919L10.3555 32.7244C11.8029 33.2569 13.3328 33.3913 14.8301 33.1176C16.3274 32.8439 17.7531 32.1693 18.9999 31.1444L39.7191 14.0909C39.8671 13.9999 40.0367 13.9718 40.1999 14.0111C40.3632 14.0505 40.5103 14.155 40.6169 14.3075C40.7235 14.4599 40.7833 14.6511 40.7864 14.8495C40.7895 15.0478 40.7356 15.2415 40.6338 15.3985L24.7629 33.4872C24.3591 33.9592 24.0479 34.5315 23.8513 35.1634C23.6548 35.7953 23.5778 36.471 23.6259 37.1425C23.6739 37.8139 23.8458 38.4643 24.1294 39.0474C24.4129 39.6305 24.801 40.1319 25.266 40.5156L42.3261 54.2456C42.8593 54.6639 43.4716 54.9173 44.1077 54.9829C44.7437 55.0486 45.3835 54.9243 45.9691 54.6215C46.5548 54.3186 47.0678 53.8467 47.4619 53.2484C47.856 52.65 48.1187 51.9441 48.2263 51.1945L54.9497 4.66519C55.0533 3.96247 54.9963 3.2395 54.7846 2.57206C54.573 1.90461 54.2146 1.31726 53.7469 0.871558C53.2792 0.42586 52.7195 0.138227 52.1264 0.038807C51.5333 -0.0606135 50.9287 0.031838 50.3759 0.306473Z" fill="white"/>
</svg>
